<?xml version="1.0" standalone="no"?><!DOCTYPE svg PUBLIC "-//W3C//DTD SVG 1.1//EN" "http://www.w3.org/Graphics/SVG/1.1/DTD/svg11.dtd"><svg t="1571044230641" class="icon" viewBox="0 0 1194 1024" version="1.1" xmlns="http://www.w3.org/2000/svg" p-id="2505" xmlns:xlink="http://www.w3.org/1999/xlink" width="74.625" height="64"><defs><style type="text/css"></style></defs><path d="M1131.3536 408.149333c37.290667-10.410667 63.317333-44.885333 63.317333-83.797333V222.378667C1194.670933 99.754667 1097.988267 0 979.118933 0H215.556267C96.686933 0 0.004267 99.754667 0.004267 222.378667V324.266667c0 38.912 26.026667 73.386667 63.317333 83.797333 45.226667 12.629333 76.885333 55.381333 76.885333 103.850667 0 48.469333-31.573333 91.221333-76.885333 103.850666A87.125333 87.125333 0 0 0 0.004267 699.648v101.973333C0.004267 924.245333 96.686933 1024 215.556267 1024h763.562666C1097.988267 1024 1194.670933 924.245333 1194.670933 801.621333V699.733333c0-38.912-26.026667-73.386667-63.317333-83.797333A107.264 107.264 0 0 1 1054.468267 512c0-48.469333 31.573333-91.221333 76.885333-103.850667zM775.172267 294.229333l-121.173334 145.92h67.157334c19.797333 0 35.84 16.64 35.84 37.12s-16.042667 37.034667-35.84 37.034667H633.1776v61.866667h87.893333c19.797333 0 35.84 16.554667 35.84 37.034666s-16.042667 37.12-35.84 37.12H633.1776v103.594667c0 20.48-16.042667 37.034667-35.925333 37.034667a36.522667 36.522667 0 0 1-35.925334-37.034667V650.24h-87.893333a36.522667 36.522667 0 0 1-35.84-37.12c0-20.48 16.042667-37.034667 35.84-37.034667h87.893333v-61.866666h-87.893333a36.522667 36.522667 0 0 1-35.84-37.034667c0-20.48 16.042667-37.034667 35.84-37.034667h67.157333l-121.173333-146.005333a37.888 37.888 0 0 1 3.925333-52.224 35.157333 35.157333 0 0 1 50.602667 4.010667L597.3376 394.496l123.306667-148.48a35.157333 35.157333 0 0 1 50.602666-4.010667c15.104 13.312 16.810667 36.693333 3.925334 52.224z" p-id="2506" fill="#2d7be5"></path></svg>